<svg version="1.2" xmlns="http://www.w3.org/2000/svg" viewBox="0 0 100 100" width="100" height="100">
	<title>file</title>
	<style>
		.s0 { fill: #000000 } 
		.s1 { fill: #f8f9fb } 
	</style>
	<path id="Layer 1" fill-rule="evenodd" class="s0" d="m49.5 87c-20.7 0-37.5-16.8-37.5-37.5 0-20.7 16.8-37.5 37.5-37.5 20.7 0 37.5 16.8 37.5 37.5 0 20.7-16.8 37.5-37.5 37.5z"/>
	<path class="s1" d="m66.7 45.8c-1.7 5.3-3.3 10.6-5 15.8-0.6 2-1.6 2.9-3.3 2.9-1.6-0.1-2.6-1-3.2-3-1.5-5.2-2.9-10.4-4.5-15.9-0.7 2.6-1.4 5-2.1 7.3q-1.4 4.5-2.8 9.1c-0.7 2-2.3 2.9-4.4 2.3-1.2-0.4-1.8-1.3-2.1-2.5q-2.4-8.2-4.9-16.4c0-0.1-0.1-0.1-0.2-0.3q-0.9 2.5-1.8 4.8-1.3 3.2-4.7 3.2c-2.1 0-4.2 0-6.3 0-1.6 0-2.6-0.7-3.2-2.1-0.4-1.2-0.1-2.6 0.9-3.3 0.6-0.4 1.4-0.7 2.2-0.8 1.7-0.1 3.4 0 5.1 0 0.8 0 1.3-0.3 1.6-1.1 1-2.8 2.1-5.6 3.2-8.4 0.7-1.9 2-2.8 3.7-2.7 1.8 0 2.6 0.8 3.3 2.9q0.3 1.1 0.6 2.2c1.2 4.4 2.4 8.7 3.8 13.5 0.6-2.1 1.2-3.8 1.7-5.5 0.9-3.2 1.9-6.5 2.9-9.8 0.7-2.5 2.3-3.6 4.5-3.2 1.5 0.2 2.2 1.2 2.6 2.5 1.4 5.1 2.8 10.2 4.3 15.6 0.6-2 1.1-3.8 1.6-5.5 1.1-3.4 2.1-6.7 3.1-10 0.6-1.8 1.7-2.6 3.3-2.7 1.9 0 3 0.7 3.6 2.6 0.9 2.7 1.8 5.3 2.6 7.9 0.4 1.3 1 1.8 2.4 1.7 1.5-0.1 2.9 0 4.4 0 1.8 0 3.1 1.1 3.3 2.8 0.1 1.5-1 3.1-2.7 3.2-2.8 0.2-5.7 0.2-8.5 0.1-1.5-0.1-2.4-1.2-2.9-2.5-0.6-1.8-1.2-3.5-1.8-5.3-0.1 0.2-0.2 0.3-0.3 0.6z"/>
</svg>